<?xml version="1.0" encoding="UTF-8" standalone="no"?><svg xmlns="http://www.w3.org/2000/svg" xmlns:xlink="http://www.w3.org/1999/xlink" clip-rule="evenodd" stroke-miterlimit="4.00" viewBox="0 0 1024 768"><desc>SVG generated by Keynote</desc><defs></defs><g transform="matrix(1.00, 0.00, -0.00, -1.00, 0.0, 768.0)"><g><clipPath id="clip-7"><path d="M 0.0 768.0 L 1024.0 768.0 L 1024.0 0.0 L 0.0 0.0 Z M 0.0 768.0 "></path></clipPath><g clip-path="url(#clip-7)"><image xlink:href="../../94B19213-1839-4ACA-AF95-0F4D5E1D33E8/assets/2CA05975C404A6B79EB2D17D5C3EEC1C.jpeg" width="1024.00" height="768.00" transform="matrix(1.00, 0.00, -0.00, -1.00, 0.0, 768.0)"></image></g></g><image xlink:href="3F16B1D2D1AC02F91AAB4E9325CAB6CC.png" width="694.00" height="67.00" transform="matrix(1.00, 0.00, -0.00, -1.00, 164.0, 693.0)"></image><text xml:space="preserve" font-family="HelveticaNeue-Bold" font-weight="bold" font-size="64.0" fill="#FEFFFE" transform="matrix(1.00, 0.00, -0.00, -1.00, 168.0, 644.0)">W</text><text xml:space="preserve" font-family="HelveticaNeue-Bold" font-weight="bold" font-size="64.0" fill="#FEFFFE" transform="matrix(1.00, 0.00, -0.00, -1.00, 228.4, 644.0)">h</text><text xml:space="preserve" font-family="HelveticaNeue-Bold" font-weight="bold" font-size="64.0" fill="#FEFFFE" transform="matrix(1.00, 0.00, -0.00, -1.00, 266.4, 644.0)">a</text><text xml:space="preserve" font-family="HelveticaNeue-Bold" font-weight="bold" font-size="64.0" fill="#FEFFFE" transform="matrix(1.00, 0.00, -0.00, -1.00, 303.1, 644.0)">t</text><text xml:space="preserve" font-family="HelveticaNeue-Bold" font-weight="bold" font-size="64.0" fill="#FEFFFE" transform="matrix(1.00, 0.00, -0.00, -1.00, 325.6, 644.0)"> </text><text xml:space="preserve" font-family="HelveticaNeue-Bold" font-weight="bold" font-size="64.0" fill="#FEFFFE" transform="matrix(1.00, 0.00, -0.00, -1.00, 343.4, 644.0)">a</text><text xml:space="preserve" font-family="HelveticaNeue-Bold" font-weight="bold" font-size="64.0" fill="#FEFFFE" transform="matrix(1.00, 0.00, -0.00, -1.00, 380.2, 644.0)">r</text><text xml:space="preserve" font-family="HelveticaNeue-Bold" font-weight="bold" font-size="64.0" fill="#FEFFFE" transform="matrix(1.00, 0.00, -0.00, -1.00, 403.9, 644.0)">e</text><text xml:space="preserve" font-family="HelveticaNeue-Bold" font-weight="bold" font-size="64.0" fill="#FEFFFE" transform="matrix(1.00, 0.00, -0.00, -1.00, 440.6, 644.0)"> </text><text xml:space="preserve" font-family="HelveticaNeue-Bold" font-weight="bold" font-size="64.0" fill="#FEFFFE" transform="matrix(1.00, 0.00, -0.00, -1.00, 458.4, 644.0)">t</text><text xml:space="preserve" font-family="HelveticaNeue-Bold" font-weight="bold" font-size="64.0" fill="#FEFFFE" transform="matrix(1.00, 0.00, -0.00, -1.00, 481.0, 644.0)">h</text><text xml:space="preserve" font-family="HelveticaNeue-Bold" font-weight="bold" font-size="64.0" fill="#FEFFFE" transform="matrix(1.00, 0.00, -0.00, -1.00, 518.9, 644.0)">e</text><text xml:space="preserve" font-family="HelveticaNeue-Bold" font-weight="bold" font-size="64.0" fill="#FEFFFE" transform="matrix(1.00, 0.00, -0.00, -1.00, 555.6, 644.0)"> </text><text xml:space="preserve" font-family="HelveticaNeue-Bold" font-weight="bold" font-size="64.0" fill="#FEFFFE" transform="matrix(1.00, 0.00, -0.00, -1.00, 573.4, 644.0)">o</text><text xml:space="preserve" font-family="HelveticaNeue-Bold" font-weight="bold" font-size="64.0" fill="#FEFFFE" transform="matrix(1.00, 0.00, -0.00, -1.00, 612.5, 644.0)">p</text><text xml:space="preserve" font-family="HelveticaNeue-Bold" font-weight="bold" font-size="64.0" fill="#FEFFFE" transform="matrix(1.00, 0.00, -0.00, -1.00, 651.6, 644.0)">t</text><text xml:space="preserve" font-family="HelveticaNeue-Bold" font-weight="bold" font-size="64.0" fill="#FEFFFE" transform="matrix(1.00, 0.00, -0.00, -1.00, 674.2, 644.0)">i</text><text xml:space="preserve" font-family="HelveticaNeue-Bold" font-weight="bold" font-size="64.0" fill="#FEFFFE" transform="matrix(1.00, 0.00, -0.00, -1.00, 690.7, 644.0)">o</text><text xml:space="preserve" font-family="HelveticaNeue-Bold" font-weight="bold" font-size="64.0" fill="#FEFFFE" transform="matrix(1.00, 0.00, -0.00, -1.00, 729.8, 644.0)">n</text><text xml:space="preserve" font-family="HelveticaNeue-Bold" font-weight="bold" font-size="64.0" fill="#FEFFFE" transform="matrix(1.00, 0.00, -0.00, -1.00, 767.7, 644.0)">s</text><text xml:space="preserve" font-family="HelveticaNeue-Bold" font-weight="bold" font-size="64.0" fill="#FEFFFE" transform="matrix(1.00, 0.00, -0.00, -1.00, 802.1, 644.0)"> </text><text xml:space="preserve" font-family="HelveticaNeue-Bold" font-weight="bold" font-size="64.0" fill="#FEFFFE" transform="matrix(1.00, 0.00, -0.00, -1.00, 819.9, 644.0)">?</text><image xlink:href="2D250E1FC029F1959EACCDDC6B51DB9B.png" width="16.00" height="16.00" transform="matrix(1.00, 0.00, -0.00, -1.00, 75.0, 550.0)"></image><text xml:space="preserve" font-family="HelveticaNeue-Medium" font-size="21.0" fill="#EBEAEA" transform="matrix(1.00, 0.00, -0.00, -1.00, 77.8, 536.3)">•</text><image xlink:href="36F6FC72F01463CE23762DA7B4988142.png" width="225.00" height="35.00" transform="matrix(1.00, 0.00, -0.00, -1.00, 102.0, 557.0)"></image><text xml:space="preserve" font-family="HelveticaNeue-Medium" font-size="28.0" fill="#EAEAEA" transform="matrix(1.00, 0.00, -0.00, -1.00, 105.0, 534.0)">C</text><text xml:space="preserve" font-family="HelveticaNeue-Medium" font-size="28.0" fill="#EAEAEA" transform="matrix(1.00, 0.00, -0.00, -1.00, 125.2, 534.0)">u</text><text xml:space="preserve" font-family="HelveticaNeue-Medium" font-size="28.0" fill="#EAEAEA" transform="matrix(1.00, 0.00, -0.00, -1.00, 141.3, 534.0)">c</text><text xml:space="preserve" font-family="HelveticaNeue-Medium" font-size="28.0" fill="#EAEAEA" transform="matrix(1.00, 0.00, -0.00, -1.00, 156.9, 534.0)">u</text><text xml:space="preserve" font-family="HelveticaNeue-Medium" font-size="28.0" fill="#EAEAEA" transform="matrix(1.00, 0.00, -0.00, -1.00, 172.9, 534.0)">m</text><text xml:space="preserve" font-family="HelveticaNeue-Medium" font-size="28.0" fill="#EAEAEA" transform="matrix(1.00, 0.00, -0.00, -1.00, 197.3, 534.0)">b</text><text xml:space="preserve" font-family="HelveticaNeue-Medium" font-size="28.0" fill="#EAEAEA" transform="matrix(1.00, 0.00, -0.00, -1.00, 214.4, 534.0)">e</text><text xml:space="preserve" font-family="HelveticaNeue-Medium" font-size="28.0" fill="#EAEAEA" transform="matrix(1.00, 0.00, -0.00, -1.00, 230.0, 534.0)">r</text><text xml:space="preserve" font-family="HelveticaNeue-Medium" font-size="28.0" fill="#EAEAEA" transform="matrix(1.00, 0.00, -0.00, -1.00, 239.8, 534.0)"> </text><text xml:space="preserve" font-family="HelveticaNeue-Medium" font-size="28.0" fill="#EAEAEA" transform="matrix(1.00, 0.00, -0.00, -1.00, 247.6, 534.0)">(</text><text xml:space="preserve" font-family="HelveticaNeue-Medium" font-size="28.0" fill="#EAEAEA" transform="matrix(1.00, 0.00, -0.00, -1.00, 255.4, 534.0)">J</text><text xml:space="preserve" font-family="HelveticaNeue-Medium" font-size="28.0" fill="#EAEAEA" transform="matrix(1.00, 0.00, -0.00, -1.00, 270.4, 534.0)">a</text><text xml:space="preserve" font-family="HelveticaNeue-Medium" font-size="28.0" fill="#EAEAEA" transform="matrix(1.00, 0.00, -0.00, -1.00, 286.0, 534.0)">v</text><text xml:space="preserve" font-family="HelveticaNeue-Medium" font-size="28.0" fill="#EAEAEA" transform="matrix(1.00, 0.00, -0.00, -1.00, 300.5, 534.0)">a</text><text xml:space="preserve" font-family="HelveticaNeue-Medium" font-size="28.0" fill="#EAEAEA" transform="matrix(1.00, 0.00, -0.00, -1.00, 316.1, 534.0)">)</text><text xml:space="preserve" font-family="HelveticaNeue-Medium" font-size="28.0" fill="#EAEAEA" transform="matrix(1.00, 0.00, -0.00, -1.00, 323.9, 534.0)"> </text><image xlink:href="../../0E6FF63F-AB2B-48CE-A616-8F8BA10A626A/assets/2D250E1FC029F1959EACCDDC6B51DB9B.png" width="16.00" height="16.00" transform="matrix(1.00, 0.00, -0.00, -1.00, 75.0, 484.0)"></image><text xml:space="preserve" font-family="HelveticaNeue-Medium" font-size="21.0" fill="#EBEAEA" transform="matrix(1.00, 0.00, -0.00, -1.00, 77.8, 470.3)">•</text><image xlink:href="B96E835A80BF9E2CA05AC3AF9B4E9927.png" width="186.00" height="35.00" transform="matrix(1.00, 0.00, -0.00, -1.00, 103.0, 491.0)"></image><text xml:space="preserve" font-family="HelveticaNeue-Medium" font-size="28.0" fill="#EAEAEA" transform="matrix(1.00, 0.00, -0.00, -1.00, 105.0, 468.0)">B</text><text xml:space="preserve" font-family="HelveticaNeue-Medium" font-size="28.0" fill="#EAEAEA" transform="matrix(1.00, 0.00, -0.00, -1.00, 124.7, 468.0)">e</text><text xml:space="preserve" font-family="HelveticaNeue-Medium" font-size="28.0" fill="#EAEAEA" transform="matrix(1.00, 0.00, -0.00, -1.00, 140.3, 468.0)">h</text><text xml:space="preserve" font-family="HelveticaNeue-Medium" font-size="28.0" fill="#EAEAEA" transform="matrix(1.00, 0.00, -0.00, -1.00, 156.4, 468.0)">a</text><text xml:space="preserve" font-family="HelveticaNeue-Medium" font-size="28.0" fill="#EAEAEA" transform="matrix(1.00, 0.00, -0.00, -1.00, 171.9, 468.0)">v</text><text xml:space="preserve" font-family="HelveticaNeue-Medium" font-size="28.0" fill="#EAEAEA" transform="matrix(1.00, 0.00, -0.00, -1.00, 186.5, 468.0)">e</text><text xml:space="preserve" font-family="HelveticaNeue-Medium" font-size="28.0" fill="#EAEAEA" transform="matrix(1.00, 0.00, -0.00, -1.00, 202.0, 468.0)"> </text><text xml:space="preserve" font-family="HelveticaNeue-Medium" font-size="28.0" fill="#EAEAEA" transform="matrix(1.00, 0.00, -0.00, -1.00, 209.8, 468.0)">(</text><text xml:space="preserve" font-family="HelveticaNeue-Medium" font-size="28.0" fill="#EAEAEA" transform="matrix(1.00, 0.00, -0.00, -1.00, 217.6, 468.0)">J</text><text xml:space="preserve" font-family="HelveticaNeue-Medium" font-size="28.0" fill="#EAEAEA" transform="matrix(1.00, 0.00, -0.00, -1.00, 232.6, 468.0)">a</text><text xml:space="preserve" font-family="HelveticaNeue-Medium" font-size="28.0" fill="#EAEAEA" transform="matrix(1.00, 0.00, -0.00, -1.00, 248.2, 468.0)">v</text><text xml:space="preserve" font-family="HelveticaNeue-Medium" font-size="28.0" fill="#EAEAEA" transform="matrix(1.00, 0.00, -0.00, -1.00, 262.7, 468.0)">a</text><text xml:space="preserve" font-family="HelveticaNeue-Medium" font-size="28.0" fill="#EAEAEA" transform="matrix(1.00, 0.00, -0.00, -1.00, 278.3, 468.0)">)</text><text xml:space="preserve" font-family="HelveticaNeue-Medium" font-size="28.0" fill="#EAEAEA" transform="matrix(1.00, 0.00, -0.00, -1.00, 286.1, 468.0)"> </text><image xlink:href="../../0E6FF63F-AB2B-48CE-A616-8F8BA10A626A/assets/2D250E1FC029F1959EACCDDC6B51DB9B.png" width="16.00" height="16.00" transform="matrix(1.00, 0.00, -0.00, -1.00, 75.0, 418.0)"></image><text xml:space="preserve" font-family="HelveticaNeue-Medium" font-size="21.0" fill="#EBEAEA" transform="matrix(1.00, 0.00, -0.00, -1.00, 77.8, 404.3)">•</text><image xlink:href="BE275263A29AC67EE146D64CD493032E.png" width="217.00" height="35.00" transform="matrix(1.00, 0.00, -0.00, -1.00, 103.0, 425.0)"></image><text xml:space="preserve" font-family="HelveticaNeue-Medium" font-size="28.0" fill="#EAEAEA" transform="matrix(1.00, 0.00, -0.00, -1.00, 105.0, 402.0)">L</text><text xml:space="preserve" font-family="HelveticaNeue-Medium" font-size="28.0" fill="#EAEAEA" transform="matrix(1.00, 0.00, -0.00, -1.00, 121.1, 402.0)">e</text><text xml:space="preserve" font-family="HelveticaNeue-Medium" font-size="28.0" fill="#EAEAEA" transform="matrix(1.00, 0.00, -0.00, -1.00, 136.6, 402.0)">t</text><text xml:space="preserve" font-family="HelveticaNeue-Medium" font-size="28.0" fill="#EAEAEA" transform="matrix(1.00, 0.00, -0.00, -1.00, 146.0, 402.0)">t</text><text xml:space="preserve" font-family="HelveticaNeue-Medium" font-size="28.0" fill="#EAEAEA" transform="matrix(1.00, 0.00, -0.00, -1.00, 155.3, 402.0)">u</text><text xml:space="preserve" font-family="HelveticaNeue-Medium" font-size="28.0" fill="#EAEAEA" transform="matrix(1.00, 0.00, -0.00, -1.00, 171.4, 402.0)">c</text><text xml:space="preserve" font-family="HelveticaNeue-Medium" font-size="28.0" fill="#EAEAEA" transform="matrix(1.00, 0.00, -0.00, -1.00, 186.9, 402.0)">e</text><text xml:space="preserve" font-family="HelveticaNeue-Medium" font-size="28.0" fill="#EAEAEA" transform="matrix(1.00, 0.00, -0.00, -1.00, 202.5, 402.0)"> </text><text xml:space="preserve" font-family="HelveticaNeue-Medium" font-size="28.0" fill="#EAEAEA" transform="matrix(1.00, 0.00, -0.00, -1.00, 210.3, 402.0)">(</text><text xml:space="preserve" font-family="HelveticaNeue-Medium" font-size="28.0" fill="#EAEAEA" transform="matrix(1.00, 0.00, -0.00, -1.00, 218.1, 402.0)">P</text><text xml:space="preserve" font-family="HelveticaNeue-Medium" font-size="28.0" fill="#EAEAEA" transform="matrix(1.00, 0.00, -0.00, -1.00, 236.7, 402.0)">y</text><text xml:space="preserve" font-family="HelveticaNeue-Medium" font-size="28.0" fill="#EAEAEA" transform="matrix(1.00, 0.00, -0.00, -1.00, 251.3, 402.0)">t</text><text xml:space="preserve" font-family="HelveticaNeue-Medium" font-size="28.0" fill="#EAEAEA" transform="matrix(1.00, 0.00, -0.00, -1.00, 260.6, 402.0)">h</text><text xml:space="preserve" font-family="HelveticaNeue-Medium" font-size="28.0" fill="#EAEAEA" transform="matrix(1.00, 0.00, -0.00, -1.00, 276.7, 402.0)">o</text><text xml:space="preserve" font-family="HelveticaNeue-Medium" font-size="28.0" fill="#EAEAEA" transform="matrix(1.00, 0.00, -0.00, -1.00, 293.3, 402.0)">n</text><text xml:space="preserve" font-family="HelveticaNeue-Medium" font-size="28.0" fill="#EAEAEA" transform="matrix(1.00, 0.00, -0.00, -1.00, 309.3, 402.0)">)</text><text xml:space="preserve" font-family="HelveticaNeue-Medium" font-size="28.0" fill="#EAEAEA" transform="matrix(1.00, 0.00, -0.00, -1.00, 317.1, 402.0)"> </text><image xlink:href="../../0E6FF63F-AB2B-48CE-A616-8F8BA10A626A/assets/2D250E1FC029F1959EACCDDC6B51DB9B.png" width="16.00" height="16.00" transform="matrix(1.00, 0.00, -0.00, -1.00, 75.0, 352.0)"></image><text xml:space="preserve" font-family="HelveticaNeue-Medium" font-size="21.0" fill="#EBEAEA" transform="matrix(1.00, 0.00, -0.00, -1.00, 77.8, 338.3)">•</text><image xlink:href="CBE94CC54F79A0F69407DA5898B6BEE2.png" width="217.00" height="35.00" transform="matrix(1.00, 0.00, -0.00, -1.00, 103.0, 359.0)"></image><text xml:space="preserve" font-family="HelveticaNeue-Medium" font-size="28.0" fill="#EAEAEA" transform="matrix(1.00, 0.00, -0.00, -1.00, 105.0, 336.0)">B</text><text xml:space="preserve" font-family="HelveticaNeue-Medium" font-size="28.0" fill="#EAEAEA" transform="matrix(1.00, 0.00, -0.00, -1.00, 124.7, 336.0)">e</text><text xml:space="preserve" font-family="HelveticaNeue-Medium" font-size="28.0" fill="#EAEAEA" transform="matrix(1.00, 0.00, -0.00, -1.00, 140.3, 336.0)">h</text><text xml:space="preserve" font-family="HelveticaNeue-Medium" font-size="28.0" fill="#EAEAEA" transform="matrix(1.00, 0.00, -0.00, -1.00, 156.4, 336.0)">a</text><text xml:space="preserve" font-family="HelveticaNeue-Medium" font-size="28.0" fill="#EAEAEA" transform="matrix(1.00, 0.00, -0.00, -1.00, 171.9, 336.0)">v</text><text xml:space="preserve" font-family="HelveticaNeue-Medium" font-size="28.0" fill="#EAEAEA" transform="matrix(1.00, 0.00, -0.00, -1.00, 186.5, 336.0)">e</text><text xml:space="preserve" font-family="HelveticaNeue-Medium" font-size="28.0" fill="#EAEAEA" transform="matrix(1.00, 0.00, -0.00, -1.00, 202.0, 336.0)"> </text><text xml:space="preserve" font-family="HelveticaNeue-Medium" font-size="28.0" fill="#EAEAEA" transform="matrix(1.00, 0.00, -0.00, -1.00, 209.8, 336.0)">(</text><text xml:space="preserve" font-family="HelveticaNeue-Medium" font-size="28.0" fill="#EAEAEA" transform="matrix(1.00, 0.00, -0.00, -1.00, 217.6, 336.0)">P</text><text xml:space="preserve" font-family="HelveticaNeue-Medium" font-size="28.0" fill="#EAEAEA" transform="matrix(1.00, 0.00, -0.00, -1.00, 236.3, 336.0)">y</text><text xml:space="preserve" font-family="HelveticaNeue-Medium" font-size="28.0" fill="#EAEAEA" transform="matrix(1.00, 0.00, -0.00, -1.00, 250.8, 336.0)">t</text><text xml:space="preserve" font-family="HelveticaNeue-Medium" font-size="28.0" fill="#EAEAEA" transform="matrix(1.00, 0.00, -0.00, -1.00, 260.1, 336.0)">h</text><text xml:space="preserve" font-family="HelveticaNeue-Medium" font-size="28.0" fill="#EAEAEA" transform="matrix(1.00, 0.00, -0.00, -1.00, 276.2, 336.0)">o</text><text xml:space="preserve" font-family="HelveticaNeue-Medium" font-size="28.0" fill="#EAEAEA" transform="matrix(1.00, 0.00, -0.00, -1.00, 292.8, 336.0)">n</text><text xml:space="preserve" font-family="HelveticaNeue-Medium" font-size="28.0" fill="#EAEAEA" transform="matrix(1.00, 0.00, -0.00, -1.00, 308.9, 336.0)">)</text><text xml:space="preserve" font-family="HelveticaNeue-Medium" font-size="28.0" fill="#EAEAEA" transform="matrix(1.00, 0.00, -0.00, -1.00, 316.7, 336.0)"> </text><image xlink:href="../../0E6FF63F-AB2B-48CE-A616-8F8BA10A626A/assets/2D250E1FC029F1959EACCDDC6B51DB9B.png" width="16.00" height="16.00" transform="matrix(1.00, 0.00, -0.00, -1.00, 75.0, 286.0)"></image><text xml:space="preserve" font-family="HelveticaNeue-Medium" font-size="21.0" fill="#EBEAEA" transform="matrix(1.00, 0.00, -0.00, -1.00, 77.8, 272.3)">•</text><image xlink:href="5B5E6C5CEF8249D60746AB5D3A78981E.png" width="152.00" height="35.00" transform="matrix(1.00, 0.00, -0.00, -1.00, 102.0, 293.0)"></image><text xml:space="preserve" font-family="HelveticaNeue-Medium" font-size="28.0" fill="#EAEAEA" transform="matrix(1.00, 0.00, -0.00, -1.00, 105.0, 270.0)">G</text><text xml:space="preserve" font-family="HelveticaNeue-Medium" font-size="28.0" fill="#EAEAEA" transform="matrix(1.00, 0.00, -0.00, -1.00, 126.3, 270.0)">i</text><text xml:space="preserve" font-family="HelveticaNeue-Medium" font-size="28.0" fill="#EAEAEA" transform="matrix(1.00, 0.00, -0.00, -1.00, 133.0, 270.0)">n</text><text xml:space="preserve" font-family="HelveticaNeue-Medium" font-size="28.0" fill="#EAEAEA" transform="matrix(1.00, 0.00, -0.00, -1.00, 149.1, 270.0)">k</text><text xml:space="preserve" font-family="HelveticaNeue-Medium" font-size="28.0" fill="#EAEAEA" transform="matrix(1.00, 0.00, -0.00, -1.00, 164.1, 270.0)">g</text><text xml:space="preserve" font-family="HelveticaNeue-Medium" font-size="28.0" fill="#EAEAEA" transform="matrix(1.00, 0.00, -0.00, -1.00, 180.7, 270.0)">o</text><text xml:space="preserve" font-family="HelveticaNeue-Medium" font-size="28.0" fill="#EAEAEA" transform="matrix(1.00, 0.00, -0.00, -1.00, 197.3, 270.0)">(</text><text xml:space="preserve" font-family="HelveticaNeue-Medium" font-size="28.0" fill="#EAEAEA" transform="matrix(1.00, 0.00, -0.00, -1.00, 205.1, 270.0)">G</text><text xml:space="preserve" font-family="HelveticaNeue-Medium" font-size="28.0" fill="#EAEAEA" transform="matrix(1.00, 0.00, -0.00, -1.00, 226.4, 270.0)">o</text><text xml:space="preserve" font-family="HelveticaNeue-Medium" font-size="28.0" fill="#EAEAEA" transform="matrix(1.00, 0.00, -0.00, -1.00, 243.0, 270.0)">)</text><text xml:space="preserve" font-family="HelveticaNeue-Medium" font-size="28.0" fill="#EAEAEA" transform="matrix(1.00, 0.00, -0.00, -1.00, 250.7, 270.0)"> </text><image xlink:href="../../0E6FF63F-AB2B-48CE-A616-8F8BA10A626A/assets/2D250E1FC029F1959EACCDDC6B51DB9B.png" width="16.00" height="16.00" transform="matrix(1.00, 0.00, -0.00, -1.00, 75.0, 220.0)"></image><text xml:space="preserve" font-family="HelveticaNeue-Medium" font-size="21.0" fill="#EBEAEA" transform="matrix(1.00, 0.00, -0.00, -1.00, 77.8, 206.3)">•</text><image xlink:href="16974CE3E856434EE959687C94741CB5.png" width="172.00" height="35.00" transform="matrix(1.00, 0.00, -0.00, -1.00, 101.0, 227.0)"></image><text xml:space="preserve" font-family="HelveticaNeue-Medium" font-size="28.0" fill="#EAEAEA" transform="matrix(1.00, 0.00, -0.00, -1.00, 105.0, 204.0)">J</text><text xml:space="preserve" font-family="HelveticaNeue-Medium" font-size="28.0" fill="#EAEAEA" transform="matrix(1.00, 0.00, -0.00, -1.00, 120.0, 204.0)">a</text><text xml:space="preserve" font-family="HelveticaNeue-Medium" font-size="28.0" fill="#EAEAEA" transform="matrix(1.00, 0.00, -0.00, -1.00, 135.6, 204.0)">s</text><text xml:space="preserve" font-family="HelveticaNeue-Medium" font-size="28.0" fill="#EAEAEA" transform="matrix(1.00, 0.00, -0.00, -1.00, 150.1, 204.0)">m</text><text xml:space="preserve" font-family="HelveticaNeue-Medium" font-size="28.0" fill="#EAEAEA" transform="matrix(1.00, 0.00, -0.00, -1.00, 174.5, 204.0)">i</text><text xml:space="preserve" font-family="HelveticaNeue-Medium" font-size="28.0" fill="#EAEAEA" transform="matrix(1.00, 0.00, -0.00, -1.00, 181.2, 204.0)">n</text><text xml:space="preserve" font-family="HelveticaNeue-Medium" font-size="28.0" fill="#EAEAEA" transform="matrix(1.00, 0.00, -0.00, -1.00, 197.3, 204.0)">e</text><text xml:space="preserve" font-family="HelveticaNeue-Medium" font-size="28.0" fill="#EAEAEA" transform="matrix(1.00, 0.00, -0.00, -1.00, 212.9, 204.0)"> </text><text xml:space="preserve" font-family="HelveticaNeue-Medium" font-size="28.0" fill="#EAEAEA" transform="matrix(1.00, 0.00, -0.00, -1.00, 220.7, 204.0)">(</text><text xml:space="preserve" font-family="HelveticaNeue-Medium" font-size="28.0" fill="#EAEAEA" transform="matrix(1.00, 0.00, -0.00, -1.00, 228.5, 204.0)">J</text><text xml:space="preserve" font-family="HelveticaNeue-Medium" font-size="28.0" fill="#EAEAEA" transform="matrix(1.00, 0.00, -0.00, -1.00, 243.5, 204.0)">S</text><text xml:space="preserve" font-family="HelveticaNeue-Medium" font-size="28.0" fill="#EAEAEA" transform="matrix(1.00, 0.00, -0.00, -1.00, 261.6, 204.0)">)</text><text xml:space="preserve" font-family="HelveticaNeue-Medium" font-size="28.0" fill="#EAEAEA" transform="matrix(1.00, 0.00, -0.00, -1.00, 269.4, 204.0)"> </text><image xlink:href="../../0E6FF63F-AB2B-48CE-A616-8F8BA10A626A/assets/2D250E1FC029F1959EACCDDC6B51DB9B.png" width="16.00" height="16.00" transform="matrix(1.00, 0.00, -0.00, -1.00, 75.0, 154.0)"></image><text xml:space="preserve" font-family="HelveticaNeue-Medium" font-size="21.0" fill="#EBEAEA" transform="matrix(1.00, 0.00, -0.00, -1.00, 77.8, 140.3)">•</text><image xlink:href="90AF5AEE8D6D0D98035313871504839E.png" width="182.00" height="35.00" transform="matrix(1.00, 0.00, -0.00, -1.00, 103.0, 161.0)"></image><text xml:space="preserve" font-family="HelveticaNeue-Medium" font-size="28.0" fill="#EAEAEA" transform="matrix(1.00, 0.00, -0.00, -1.00, 105.0, 138.0)">R</text><text xml:space="preserve" font-family="HelveticaNeue-Medium" font-size="28.0" fill="#EAEAEA" transform="matrix(1.00, 0.00, -0.00, -1.00, 124.7, 138.0)">S</text><text xml:space="preserve" font-family="HelveticaNeue-Medium" font-size="28.0" fill="#EAEAEA" transform="matrix(1.00, 0.00, -0.00, -1.00, 142.9, 138.0)">p</text><text xml:space="preserve" font-family="HelveticaNeue-Medium" font-size="28.0" fill="#EAEAEA" transform="matrix(1.00, 0.00, -0.00, -1.00, 160.0, 138.0)">e</text><text xml:space="preserve" font-family="HelveticaNeue-Medium" font-size="28.0" fill="#EAEAEA" transform="matrix(1.00, 0.00, -0.00, -1.00, 175.5, 138.0)">c</text><text xml:space="preserve" font-family="HelveticaNeue-Medium" font-size="28.0" fill="#EAEAEA" transform="matrix(1.00, 0.00, -0.00, -1.00, 191.1, 138.0)"> </text><text xml:space="preserve" font-family="HelveticaNeue-Medium" font-size="28.0" fill="#EAEAEA" transform="matrix(1.00, 0.00, -0.00, -1.00, 198.9, 138.0)">(</text><text xml:space="preserve" font-family="HelveticaNeue-Medium" font-size="28.0" fill="#EAEAEA" transform="matrix(1.00, 0.00, -0.00, -1.00, 206.7, 138.0)">R</text><text xml:space="preserve" font-family="HelveticaNeue-Medium" font-size="28.0" fill="#EAEAEA" transform="matrix(1.00, 0.00, -0.00, -1.00, 226.4, 138.0)">u</text><text xml:space="preserve" font-family="HelveticaNeue-Medium" font-size="28.0" fill="#EAEAEA" transform="matrix(1.00, 0.00, -0.00, -1.00, 242.5, 138.0)">b</text><text xml:space="preserve" font-family="HelveticaNeue-Medium" font-size="28.0" fill="#EAEAEA" transform="matrix(1.00, 0.00, -0.00, -1.00, 259.6, 138.0)">y</text><text xml:space="preserve" font-family="HelveticaNeue-Medium" font-size="28.0" fill="#EAEAEA" transform="matrix(1.00, 0.00, -0.00, -1.00, 274.1, 138.0)">)</text><text xml:space="preserve" font-family="HelveticaNeue-Medium" font-size="28.0" fill="#EAEAEA" transform="matrix(1.00, 0.00, -0.00, -1.00, 281.9, 138.0)"> </text><image xlink:href="../../0E6FF63F-AB2B-48CE-A616-8F8BA10A626A/assets/2D250E1FC029F1959EACCDDC6B51DB9B.png" width="16.00" height="16.00" transform="matrix(1.00, 0.00, -0.00, -1.00, 75.0, 88.0)"></image><text xml:space="preserve" font-family="HelveticaNeue-Medium" font-size="21.0" fill="#EBEAEA" transform="matrix(1.00, 0.00, -0.00, -1.00, 77.8, 74.3)">•</text><image xlink:href="6BA6FBDF82BD6E89B7DF5B63893DF996.png" width="246.00" height="34.00" transform="matrix(1.00, 0.00, -0.00, -1.00, 100.0, 94.0)"></image><text xml:space="preserve" font-family="HelveticaNeue-Medium" font-size="28.0" fill="#EAEAEA" transform="matrix(1.00, 0.00, -0.00, -1.00, 105.0, 72.0)">A</text><text xml:space="preserve" font-family="HelveticaNeue-Medium" font-size="28.0" fill="#EAEAEA" transform="matrix(1.00, 0.00, -0.00, -1.00, 123.7, 72.0)">n</text><text xml:space="preserve" font-family="HelveticaNeue-Medium" font-size="28.0" fill="#EAEAEA" transform="matrix(1.00, 0.00, -0.00, -1.00, 139.7, 72.0)">d</text><text xml:space="preserve" font-family="HelveticaNeue-Medium" font-size="28.0" fill="#EAEAEA" transform="matrix(1.00, 0.00, -0.00, -1.00, 156.9, 72.0)"> </text><text xml:space="preserve" font-family="HelveticaNeue-Medium" font-size="28.0" fill="#EAEAEA" transform="matrix(1.00, 0.00, -0.00, -1.00, 164.6, 72.0)">m</text><text xml:space="preserve" font-family="HelveticaNeue-Medium" font-size="28.0" fill="#EAEAEA" transform="matrix(1.00, 0.00, -0.00, -1.00, 189.0, 72.0)">a</text><text xml:space="preserve" font-family="HelveticaNeue-Medium" font-size="28.0" fill="#EAEAEA" transform="matrix(1.00, 0.00, -0.00, -1.00, 204.6, 72.0)">n</text><text xml:space="preserve" font-family="HelveticaNeue-Medium" font-size="28.0" fill="#EAEAEA" transform="matrix(1.00, 0.00, -0.00, -1.00, 220.6, 72.0)">y</text><text xml:space="preserve" font-family="HelveticaNeue-Medium" font-size="28.0" fill="#EAEAEA" transform="matrix(1.00, 0.00, -0.00, -1.00, 235.2, 72.0)"> </text><text xml:space="preserve" font-family="HelveticaNeue-Medium" font-size="28.0" fill="#EAEAEA" transform="matrix(1.00, 0.00, -0.00, -1.00, 243.0, 72.0)">m</text><text xml:space="preserve" font-family="HelveticaNeue-Medium" font-size="28.0" fill="#EAEAEA" transform="matrix(1.00, 0.00, -0.00, -1.00, 267.3, 72.0)">o</text><text xml:space="preserve" font-family="HelveticaNeue-Medium" font-size="28.0" fill="#EAEAEA" transform="matrix(1.00, 0.00, -0.00, -1.00, 283.9, 72.0)">r</text><text xml:space="preserve" font-family="HelveticaNeue-Medium" font-size="28.0" fill="#EAEAEA" transform="matrix(1.00, 0.00, -0.00, -1.00, 293.3, 72.0)">e</text><text xml:space="preserve" font-family="HelveticaNeue-Medium" font-size="28.0" fill="#EAEAEA" transform="matrix(1.00, 0.00, -0.00, -1.00, 308.8, 72.0)"> </text><text xml:space="preserve" font-family="HelveticaNeue-Medium" font-size="28.0" fill="#EAEAEA" transform="matrix(1.00, 0.00, -0.00, -1.00, 316.6, 72.0)">…</text><image xlink:href="191AB6CF2914C23CB4CB9BD1392BBD87.png" width="262.00" height="267.00" transform="matrix(-1.00, 0.00, 0.00, -1.00, 875.0, 436.5)" opacity="0.70"></image><image xlink:href="B308428979B1BBEAADB07DF46C3568A3.jpeg" width="222.00" height="227.00" transform="matrix(-1.00, 0.00, 0.00, -1.00, 855.0, 426.0)"></image><image xlink:href="1A4C9768CA2697DB9655AF46FF7CBC1B.png" width="181.00" height="517.00" transform="matrix(1.00, 0.00, -0.00, -1.00, 419.0, 581.0)"></image><text xml:space="preserve" font-family="HelveticaNeue-Medium" font-size="550.0" fill="#EAEAEA" transform="matrix(1.00, 0.00, -0.00, -1.00, 431.0, 176.0)">}</text></g></svg>